<?xml version="1.0" encoding="utf-8"?>
<!-- Generator: Adobe Illustrator 23.0.3, SVG Export Plug-In . SVG Version: 6.00 Build 0)  -->
<svg version="1.1" xmlns="http://www.w3.org/2000/svg" xmlns:xlink="http://www.w3.org/1999/xlink" x="0px" y="0px"
	 viewBox="0 0 1000 360" style="enable-background:new 0 0 1000 360;" xml:space="preserve">
<style type="text/css">
	.st0{fill:#5BC2EF;}
	.st1{fill:#444444;}
	.st2{fill:url(#SVGID_1_);}
	.st3{display:none;fill:#5BC2EF;}
	.st4{fill:url(#SVGID_2_);}
	.st5{fill:#21AFDB;}
	.st6{fill:url(#SVGID_3_);}
	.st7{fill:#FFFFFF;}
	.st8{clip-path:url(#SVGID_5_);fill:#010101;}
	.st9{fill:#010101;}
	.st10{fill:#FFC104;}
</style>
<g id="Layer_1">
</g>
<g id="Layer_2">
	<g>
		<g>
			<path d="M593.29,250.54c0-2.79,2.09-4.6,4.6-4.6s4.62,1.8,4.62,4.6c0,2.79-2.11,4.62-4.62,4.62S593.29,253.34,593.29,250.54z
				 M599.91,250.54c0-1.2-0.91-2.01-2.01-2.01c-1.08,0-1.99,0.82-1.99,2.01c0,1.23,0.91,2.03,1.99,2.03
				C598.99,252.58,599.91,251.78,599.91,250.54z"/>
			<path d="M607.03,246.14v1.1c0.44-0.82,1.5-1.29,2.6-1.29c2.28,0,4.29,1.8,4.29,4.6c0,2.85-2.01,4.65-4.29,4.65
				c-1.1,0-2.17-0.46-2.6-1.27v5.43h-2.62v-13.22H607.03z M609.14,252.71c1.12,0,2.05-0.84,2.05-2.11c0-1.31-0.93-2.15-2.05-2.15
				c-1.1,0-2.05,0.87-2.05,2.15C607.09,251.93,608.06,252.71,609.14,252.71z"/>
			<path d="M624,253.39c-0.89,1.33-2.55,1.81-4.05,1.81c-2.55,0-4.64-1.86-4.64-4.65c0-2.79,2.09-4.6,4.64-4.6
				c2.53,0,4.54,1.88,4.54,4.67c0,0.23-0.02,0.59-0.04,0.82h-6.5c0.13,1.03,1.25,1.48,2.18,1.48c0.72,0,1.5-0.27,1.94-0.84
				L624,253.39z M621.83,249.78c-0.13-1.08-1.12-1.52-1.86-1.52c-0.74,0-1.75,0.4-1.98,1.52H621.83z"/>
			<path d="M628.94,255.01h-2.64v-8.87h2.64v1.29c0.48-0.89,1.52-1.48,2.56-1.48c1.99,0,3.25,1.23,3.25,3.76v5.3
				c-0.44,0-2.22,0-2.64,0v-4.73c0-1.18-0.65-1.77-1.54-1.77c-0.93,0-1.63,0.46-1.63,1.8V255.01z"/>
			<path d="M639.39,251.36c-2.66-0.72-2.68-2.07-2.66-2.89c0.02-1.31,1.6-2.53,3.46-2.53c1.77,0,3.63,0.78,3.65,2.94h-2.49
				c-0.02-0.67-0.59-0.78-1.01-0.78c-0.57,0-0.95,0.27-0.93,0.66c0.02,0.27,0.25,0.53,0.78,0.67l1.5,0.4
				c2.15,0.59,2.41,2.01,2.41,2.58c0,1.88-1.98,2.77-3.84,2.77c-1.8,0-3.69-1.08-3.7-3.06h2.47c0.02,0.51,0.59,1.03,1.31,1.03
				c0.59-0.02,1.08-0.29,1.08-0.74c0-0.38-0.23-0.59-0.87-0.76L639.39,251.36z"/>
			<path d="M645.43,250.54c0-2.79,2.09-4.6,4.6-4.6s4.62,1.8,4.62,4.6c0,2.79-2.11,4.62-4.62,4.62S645.43,253.34,645.43,250.54z
				 M652.04,250.54c0-1.2-0.91-2.01-2.01-2.01c-1.08,0-1.99,0.82-1.99,2.01c0,1.23,0.91,2.03,1.99,2.03
				C651.13,252.58,652.04,251.78,652.04,250.54z"/>
			<path d="M662.26,246.14h2.64v8.87h-2.64v-1.22c-0.48,0.89-1.44,1.41-2.3,1.41c-1.99,0-3.51-1.24-3.51-3.76v-5.3h2.64v4.73
				c0,1.41,0.97,1.77,1.58,1.77c0.82,0,1.6-0.46,1.6-1.8V246.14z"/>
			<path d="M669.98,255.01h-2.64v-8.87h2.64v2.15c0.46-1.65,1.6-2.34,2.51-2.34c0.63,0,1.1,0.11,1.52,0.32l-0.48,2.37
				c-0.47-0.23-0.93-0.27-1.35-0.27c-1.52,0-2.2,1.2-2.2,3.53V255.01z"/>
			<path d="M679.51,245.95c1.58,0,3,0.68,3.86,1.88l-2.15,1.54c-0.36-0.57-1.03-0.89-1.71-0.89c-1.12,0-2.2,0.8-2.2,2.07
				c0,1.27,1.08,2.13,2.2,2.13c0.68,0,1.35-0.32,1.71-0.89l2.15,1.52c-0.84,1.2-2.26,1.9-3.86,1.9c-2.55,0-4.83-1.86-4.83-4.65
				C674.69,247.75,676.97,245.95,679.51,245.95z"/>
			<path d="M693.23,253.39c-0.89,1.33-2.55,1.81-4.05,1.81c-2.55,0-4.64-1.86-4.64-4.65c0-2.79,2.09-4.6,4.64-4.6
				c2.53,0,4.54,1.88,4.54,4.67c0,0.23-0.02,0.59-0.04,0.82h-6.5c0.13,1.03,1.25,1.48,2.18,1.48c0.72,0,1.5-0.27,1.94-0.84
				L693.23,253.39z M691.07,249.78c-0.13-1.08-1.12-1.52-1.86-1.52c-0.74,0-1.75,0.4-1.98,1.52H691.07z"/>
		</g>
		<g>
			<path d="M368.97,207.76l12.24-57.59c3.73-17.53,14.62-27.54,31.52-27.54c16.9,0,23.54,10.02,19.81,27.54l-2,9.39h-16.28
				l2.23-10.49c1.66-7.83-1.15-10.8-6.63-10.8s-9.55,2.97-11.22,10.8l-12.74,59.94c-1.66,7.83,1.18,10.64,6.66,10.64
				s9.52-2.82,11.18-10.64l4.56-21.44h-8.61l3.33-15.65h24.88l-7.62,35.84c-3.73,17.53-14.62,27.54-31.52,27.54
				C371.88,235.3,365.24,225.28,368.97,207.76z"/>
			<path d="M430.16,207.76l12.24-57.59c3.73-17.53,15.09-27.54,31.99-27.54s24.01,10.02,20.28,27.54l-12.24,57.59
				c-3.73,17.53-15.09,27.54-31.99,27.54S426.44,225.28,430.16,207.76z M464.99,208.85l12.71-59.79c1.66-7.83-1.15-10.8-6.63-10.8
				s-9.55,2.97-11.22,10.8l-12.71,59.79c-1.66,7.83,1.15,10.8,6.63,10.8S463.32,216.68,464.99,208.85z"/>
			<path d="M488.01,216.52l0.88-4.15h10.78l-1.06,4.98c-1.1,5.18,0.78,7.05,4.41,7.05s6.31-1.87,7.45-7.26
				c1.28-6.01-0.19-9.85-6.26-16.38c-7.75-8.4-9.61-14.31-7.84-22.6c2.42-11.41,9.75-18.04,20.84-18.04
				c11.09,0,15.18,6.64,12.71,18.25l-0.64,3.01H518.5l0.79-3.73c1.1-5.18-0.55-7.15-4.18-7.15c-3.63,0-6.12,1.97-7.18,6.95
				c-1.12,5.29,0.45,9.12,6.52,15.66c7.75,8.4,9.53,14.21,7.61,23.23c-2.51,11.82-9.94,18.46-21.13,18.46
				C489.73,234.77,485.55,228.14,488.01,216.52z"/>
			<path d="M527.72,216.52l8.11-38.16c2.47-11.61,10-18.25,21.19-18.25c11.2,0,15.9,6.64,13.44,18.25l-8.11,38.16
				c-2.47,11.61-10,18.25-21.19,18.25C529.96,234.77,525.26,228.14,527.72,216.52z M550.79,217.25l8.42-39.61
				c1.1-5.18-0.76-7.15-4.39-7.15s-6.33,1.97-7.43,7.15l-8.42,39.61c-1.1,5.18,0.76,7.16,4.39,7.16S549.69,222.43,550.79,217.25z"/>
			<path d="M581.8,161.16h11.41l-13.22,62.21h18.77l-2.2,10.37h-30.17L581.8,161.16z"/>
			<path d="M617.46,161.16h11.41l-15.43,72.58h-11.41L617.46,161.16z"/>
			<path d="M637.37,161.16h14.31l1.86,43.45h0.21l9.23-43.45h10.16l-15.43,72.58H646l-2.42-52.98h-0.21l-11.26,52.98h-10.16
				L637.37,161.16z"/>
			<path d="M681.64,161.16h31.11l-2.2,10.37h-19.7l-4.08,19.18h15.66l-2.2,10.37h-15.66l-4.74,22.29h19.7l-2.2,10.37h-31.11
				L681.64,161.16z"/>
		</g>
		<path class="st10" d="M548.92,243.75c-22.43,40.34-65.48,67.65-114.91,67.65c-72.57,0-131.39-58.83-131.39-131.39
			S361.44,48.61,434,48.61c62.19,0,114.29,43.21,127.91,101.24h15.73C563.74,83.27,504.72,33.25,434,33.25
			c-81.05,0-146.75,65.7-146.75,146.75S352.96,326.75,434,326.75c58.2,0,108.49-33.88,132.22-83H548.92z"/>
		<path d="M501.74,243.75c-16.96,17.94-40.98,29.15-67.61,29.15c-51.37,0-93.01-41.64-93.01-93.01s41.64-93.01,93.01-93.01
			c40.86,0,75.56,26.35,88.05,62.98h14.78c-12.98-44.53-54.1-77.07-102.83-77.07c-59.15,0-107.1,47.95-107.1,107.1
			s47.95,107.1,107.1,107.1c35.22,0,66.46-17,85.98-43.24H501.74z"/>
	</g>
</g>
</svg>
